<svg id="Layer_1" viewBox="0 0 24 24" xmlns="http://www.w3.org/2000/svg" data-name="Layer 1"><path d="m20 12.358v-1.101c0-2.953-1.613-5.531-4-6.917-.005-.003-1-.834-1-.834s-1.046.006-1.069 0c-.62-.155-1.264-.25-1.931-.25s-1.311.094-1.931.25c-.023.006-1.053.03-1.053.03s-1.011.801-1.016.804c-2.387 1.386-4 3.964-4 6.917v1.101l-1.128 6.267c0 2.757 3.371 4.632 6.128 4.632h6c2.757 0 5.638-1.364 5.638-4.121z" opacity=".5" fill="#077D21"/><path d="m4 18.257v-5.899c-2.279.465-4 2.484-4 4.899v1c0 2.757 2.243 5 5 5h4c-2.757 0-5-2.243-5-5z" fill="darkblue"/><path d="m20 12.358v5.899c0 2.757-2.243 5-5 5h4c2.757 0 5-2.243 5-5v-1c0-2.414-1.721-4.434-4-4.899z" fill="darkblue"/><path d="m14 11.256h-4c-.553 0-1-.448-1-1s.447-1 1-1h4c.553 0 1 .448 1 1s-.447 1-1 1z" fill="darkblue"/><path d="m16.751 24h-9.502c-1.644 0-3.018-1.125-3.427-2.642.691-3.892 4.091-6.859 8.178-6.859s7.487 2.967 8.178 6.859c-.409 1.517-1.783 2.642-3.427 2.642z" fill="darkblue"/><path d="m10 3.52c.023-.006.046-.008.069-.014.221-.864 1-1.506 1.931-1.506s1.71.643 1.931 1.506c.023.006.047.008.069.014.337.087.666.195.985.323.346.139.68.302 1 .487.005.003.01.007.015.01v-.34c0-2.206-1.794-4-4-4s-4 1.794-4 4v.34c.005-.003.01-.007.015-.01.308-.178.628-.335.959-.47s.674-.249 1.026-.34z" fill="darkblue"/></svg>